<svg width="16" height="16" viewBox="0 0 16 16" fill="none" xmlns="http://www.w3.org/2000/svg">
<path d="M8.88421 7.99996L15.817 1.06707C16.061 0.823019 16.061 0.427095 15.817 0.183041C15.5729 -0.0610135 15.177 -0.0610135 14.9329 0.183041L8.00016 7.11624L1.0671 0.183353C0.823039 -0.060701 0.427105 -0.060701 0.183045 0.183353C-0.061015 0.427407 -0.061015 0.823331 0.183045 1.06707L7.11642 7.99996L0.183358 14.9328C-0.0607025 15.1769 -0.0607025 15.5728 0.183358 15.8169C0.305231 15.9388 0.46523 16 0.625228 16C0.785227 16 0.945225 15.9391 1.0671 15.8169L8.00016 8.88399L14.9332 15.8169C15.0551 15.9388 15.2151 16 15.3751 16C15.5351 16 15.6951 15.9391 15.817 15.8169C16.061 15.5728 16.061 15.1769 15.817 14.9328L8.88421 7.99996Z" fill="#808080"/>
</svg>
